<?xml version="1.0" encoding="utf-8"?>
<!-- Generator: Adobe Illustrator 22.1.0, SVG Export Plug-In . SVG Version: 6.00 Build 0)  -->
<svg version="1.1" id="Layer_1" xmlns="http://www.w3.org/2000/svg" xmlns:xlink="http://www.w3.org/1999/xlink" x="0px" y="0px"
	 viewBox="0 0 595.3 841.9" style="enable-background:new 0 0 595.3 841.9;" xml:space="preserve">
<style type="text/css">
	.st0{fill:#FFFFFF;stroke:#000000;stroke-miterlimit:10;}
</style>
<path class="st0" d="M486,126l-23.1,18.9c0.4,1,0.6,2.1,0.6,3.2c0,5-4,9-9,9s-9-4-9-9c0-5,4-9,9-9c1.2,0,2.4,0.3,3.5,0.7l19-22.8
	l-18-18l-23.1,18.9c0.4,1,0.6,2.1,0.6,3.2c0,5-4,9-9,9s-9-4-9-9c0-5,4-9,9-9c1.2,0,2.4,0.3,3.5,0.7L450,90l-18-18H144l-18,18
	l19,22.8c1.1-0.5,2.3-0.7,3.5-0.7c5,0,9,4,9,9c0,5-4,9-9,9s-9-4-9-9c0-1.1,0.2-2.2,0.6-3.2L117,99l-18,18l19,22.8
	c1.1-0.5,2.3-0.7,3.5-0.7c5,0,9,4,9,9c0,5-4,9-9,9s-9-4-9-9c0-1.1,0.2-2.2,0.6-3.2L90,126l-18,18v288l18,18l23.1-19.6
	c-0.4-1-0.6-2.1-0.6-3.3c0-5,4-9,9-9s9,4,9,9c0,5-4,9-9,9c-1,0-2.1-0.2-3-0.5L99,459l18,18l23.1-19.6c-0.4-1-0.6-2.1-0.6-3.3
	c0-5,4-9,9-9s9,4,9,9c0,5-4,9-9,9c-1,0-2.1-0.2-3-0.5L126,486l18,18h288l18-18l-19.5-23.4c-0.9,0.3-1.9,0.5-3,0.5c-5,0-9-4-9-9
	c0-5,4-9,9-9s9,4,9,9c0,1.2-0.2,2.3-0.6,3.3L459,477l18-18l-19.5-23.4c-0.9,0.3-1.9,0.5-3,0.5c-5,0-9-4-9-9c0-5,4-9,9-9s9,4,9,9
	c0,1.2-0.2,2.3-0.6,3.3L486,450l18-18V144L486,126z M387,255c-1.1,0-5.6,0-13.5-0.1c-7.9-0.1-19.9-0.1-36-0.1
	c-0.1,14-0.2,24.7-0.3,32c-0.1,7.3-0.1,17.2-0.1,29.7c0,12.1,0.1,24.3,0.2,36.7c0.1,12.4,0.2,20.7,0.3,24.8h-16.6
	c0.1-4.1,0.3-12.5,0.4-25.2c0.1-12.7,0.2-25.1,0.2-37.2c0-11.9,0-21.4,0-28.4c0-7-0.1-17.8-0.3-32.4c-14.3-0.1-25.9-0.1-34.9,0.1
	c-5.3,0.1-9.1,0.1-11.6,0.1c-1.1,1.8-2.3,3.5-3.8,5c-5.9,6.5-11.4,11.3-16.7,14.4v0.5c9.2,11,19.3,22.3,30.3,33.9
	c11,11.6,16.9,17.9,17.7,18.8l-12.6,10.6c-1.5-1.6-6.7-7.5-15.7-17.8c-9-10.3-22.9-26.4-41.6-48.2l0.1-0.9c2.6-0.7,6-2.2,10.2-4.5
	c4.2-2.3,7.8-4.8,10.7-7.4c2.5-2.3,4.7-5.2,6.5-8.6c1.9-3.4,2.8-8,2.8-13.8c0-5.3-1.4-9.8-4.1-13.6c-2.7-3.8-6.5-6.6-11.3-8.4
	c-3.9-1.5-8-2.4-12.3-2.7c-4.3-0.3-8.3-0.5-11.9-0.5c-2.4,0-4.3,0-5.5,0.1c-1.3,0-2.2,0.1-2.8,0.1c-0.1,13-0.2,24.5-0.3,34.4
	c0,9.9-0.1,17-0.1,21.1c0,9.4,0.1,22.1,0.2,38.2c0.1,16.1,0.2,26.2,0.3,30.3H198c0.1-4.1,0.2-12.1,0.3-23.9
	c0.1-11.8,0.2-26.5,0.2-44.1c0-3.4,0-9.8,0-19c0-9.2-0.2-26.1-0.5-50.5c0.7,0,4-0.1,10.1-0.2c6-0.1,11.6-0.2,16.7-0.2
	c5.8,0,11.5,0.3,17,1c5.5,0.7,10.9,2.2,16.1,4.4c6.7,2.9,11.9,7.1,15.8,12.7c3.9,5.6,5.8,12.1,5.8,19.6c0,1.8-0.1,3.4-0.3,5.1
	c5.2,0,11,0,17.4,0.1c9.9,0.1,20.5,0.1,31.7,0.1c16.3,0,29.9,0,40.8-0.1c10.9-0.1,16.8-0.1,17.7-0.1V255z"/>
</svg>
